<svg width="352" height="437" viewBox="0 0 352 437" fill="none" xmlns="http://www.w3.org/2000/svg">
<g id="Group 10">
<path id="Path 3" fill-rule="evenodd" clip-rule="evenodd" d="M173.03 22.6665C134.799 6.78548 95.4874 -19.7027 55.2411 28.6784C14.9949 77.0595 -10.3077 119.441 6.03198 174.278C22.3716 229.114 89.0685 194.958 108.448 243.969C127.827 292.98 85.2464 337.461 103.604 381.08C121.961 424.7 136.076 452.656 195.071 424.921C254.065 397.187 248.626 326.618 293.488 285.293C338.351 243.969 386.889 182.105 320.278 71.7168C253.667 -38.6714 211.261 38.5474 173.03 22.6665Z" stroke="#9E96C6"/>
<path id="Path 3 Copy" fill-rule="evenodd" clip-rule="evenodd" d="M177.916 48.5822C146.807 35.6949 114.819 14.1999 82.0703 53.4609C49.3218 92.7219 28.733 127.114 42.0286 171.614C55.3243 216.113 109.596 188.396 125.365 228.168C141.133 267.94 106.486 304.036 121.423 339.433C136.361 374.83 147.846 397.516 195.85 375.01C243.854 352.503 239.428 295.237 275.933 261.702C312.438 228.168 351.934 177.966 297.732 88.3863C243.53 -1.19312 209.025 61.4695 177.916 48.5822Z" stroke="#9E96C6"/>
<path id="Path 3 Copy 2" fill-rule="evenodd" clip-rule="evenodd" d="M186.819 65.3447C161.604 54.8304 135.677 37.2934 109.133 69.325C82.5899 101.357 65.9021 129.416 76.6786 165.722C87.4551 202.027 131.444 179.414 144.225 211.862C157.006 244.311 128.923 273.76 141.03 302.639C153.137 331.518 162.447 350.027 201.355 331.665C240.264 313.303 236.676 266.581 266.264 239.222C295.852 211.862 327.865 170.904 283.933 97.8194C240.001 24.7348 212.033 75.859 186.819 65.3447Z" stroke="#9E96C6"/>
<path id="Path 3 Copy 5" fill-rule="evenodd" clip-rule="evenodd" d="M195.988 85.5056C175.603 77.0723 154.643 63.0062 133.184 88.6982C111.725 114.39 98.2341 136.896 106.946 166.016C115.658 195.136 151.22 176.999 161.553 203.025C171.886 229.051 149.183 252.672 158.971 275.836C168.758 298.999 176.285 313.845 207.74 299.117C239.195 284.389 236.295 246.914 260.215 224.97C284.135 203.025 310.016 170.173 274.499 111.553C238.983 52.9331 216.373 93.939 195.988 85.5056Z" stroke="#9E96C6"/>
<path id="Path 3 Copy 4" fill-rule="evenodd" clip-rule="evenodd" d="M197.887 99.4137C181.268 92.5137 164.18 81.005 146.685 102.026C129.19 123.047 118.192 141.461 125.294 165.286C132.397 189.112 161.389 174.272 169.813 195.566C178.237 216.86 159.728 236.187 167.708 255.138C175.687 274.09 181.823 286.237 207.467 274.186C233.112 262.136 230.747 231.475 250.249 213.521C269.75 195.566 290.849 168.687 261.894 120.725C232.938 72.7635 214.505 106.314 197.887 99.4137Z" stroke="#9E96C6"/>
<path id="Path 3 Copy 3" fill-rule="evenodd" clip-rule="evenodd" d="M203.486 108.621C189.978 103.035 176.089 93.7184 161.869 110.735C147.649 127.752 138.709 142.659 144.482 161.946C150.256 181.233 173.821 169.22 180.668 186.458C187.515 203.696 172.47 219.341 178.956 234.683C185.442 250.025 190.43 259.858 211.273 250.103C232.117 240.348 230.196 215.528 246.046 200.993C261.897 186.458 279.047 164.699 255.512 125.873C231.976 87.0466 216.994 114.206 203.486 108.621Z" stroke="#9E96C6"/>
</g>
</svg>
